/* XPM */
static char * diff_files_xpm[] = {
"32 32 3 1",
" 	c None",
".	c #B2C0DC",
"+	c #000000",
"....++++++++++++................",
"...++++++++++++++++++++.........",
"..+++++++++++++++++++++++.......",
"..++++++++++++++++++++++++......",
"..+++++++++++++++++++++++++.....",
"...+++++.......++++++++++++.....",
"...+++++.............+++++++....",
"...+++++..............++++++....",
"...+++++...............+++++....",
"...+++++...............+++++....",
"...+++++...............+++++....",
"...+++++...............+++++....",
"...+++++...............+++++....",
"...+++++..............++++++....",
"...+++++.............+++++++....",
"...+++++...........++++++++.....",
"...+++++..........++++++++......",
"...+++++.....++++++++++++.......",
"...+++++++++++++++++++++........",
"...++++++++++++++++++++.........",
"...++++++++++++++++++...........",
"...+++++++++++++++++............",
"....+++++++++++.................",
"................................",
"................................",
".+++++++.........+++++++++++....",
"+++++++++.......+++++++++++++...",
"+++++++++.......+++++++++++++...",
"+++++++++.......+++++++++++++...",
".+++++++.........+++++++++++....",
"................................",
"................................"};
