/* XPM */
static char * diff_files_next_xpm[] = {
"32 32 2 1",
" 	c None",
".	c #000000",
"                                ",
"                                ",
"            .      ....         ",
"            .       ...         ",
"           ..       ...         ",
"           ..   .   ..    .     ",
"          ...  .... ..  ...     ",
"          ...  .....  ......    ",
"         ....  ....    .....    ",
"         ....                   ",
"        .....     ... ..        ",
"        .....    .... ...       ",
"       ......   ....  ....      ",
"       ......   ....   ...      ",
"      .......    ..    ..       ",
"        ..                      ",
"        ..         ...      ..  ",
"        ..         ...      ..  ",
"       ..         .....    ...  ",
"       ..         .....    ...  ",
"       ..         .....    ...  ",
"       ..         .. ...   ..   ",
"      ..         ... ...   ..   ",
"      ..         ... .... ...   ",
"      ..         ...  ... ...   ",
"      ..         ..   ......    ",
"     ..          ..    .....    ",
"     ..         ...    .....    ",
"     ..         ...     ....    ",
"    ...         ...     ....    ",
"    ..          ..      ...     ",
"                                "};
