/* XPM */
static char * next_unselected_difference_xpm[] = {
"32 32 2 1",
" 	c None",
".	c #000000",
"                                ",
"                                ",
"       .                        ",
"      ....                      ",
"      .......                   ",
"      .........                 ",
"      ............              ",
"      ..............            ",
"      .................         ",
"         ................       ",
"           .................    ",
"              ..............    ",
"                 ...........    ",
"                   .........    ",
"                 ..........     ",
"              .............     ",
"           ................     ",
"        ................        ",
"     ................           ",
"   ...............              ",
"   ............                 ",
"   .........        ..    ..    ",
"  ........          ...  ...    ",
"  .....              ......     ",
"  ..                  ....      ",
"                      ....      ",
"                     ......     ",
"                    ...  ...    ",
"                    ..    ..    ",
"                                ",
"                                ",
"                                "};
