/* XPM */
static const char * previous_unselected_difference_xpm[] = {
"32 32 2 1",
" 	c None",
".	c #000000",
"                                ",
"                                ",
"                                ",
"                            .   ",
"                         ....   ",
"                      .......   ",
"                   .........    ",
"                ............    ",
"             ...............    ",
"          .................     ",
"       .................        ",
"    .................           ",
"    ..............              ",
"    ...........                 ",
"   .........                    ",
"   ...........                  ",
"   ..............               ",
"   ................             ",
"     .................          ",
"        .................       ",
"          ...............       ",
"  ..     ..  ............       ",
"   ..   ...    ..........       ",
"    .. ...        .......       ",
"     ....           .....       ",
"     ...               .        ",
"    .....                       ",
"   ...  ..                      ",
"   ..    ..                     ",
"  .       .                     ",
"                                ",
"                                "};
