/* XPM */
static char * save_as_xpm[] = {
"32 32 52 1",
" 	c None",
".	c #000000",
"+	c #404040",
"@	c #9A9A9A",
"#	c #727272",
"$	c #4A4A4A",
"%	c #222222",
"&	c #7D7D7D",
"*	c #FFFFFF",
"=	c #F6F6F6",
"-	c #CFCFCF",
";	c #A7A7A7",
">	c #7F7F7F",
",	c #575757",
"'	c #303030",
")	c #050505",
"!	c #A5A5A5",
"~	c #CCCCCC",
"{	c #555555",
"]	c #F4F4F4",
"^	c #2D2D2D",
"/	c #202020",
"(	c #484848",
"_	c #DADADA",
":	c #131313",
"<	c #535353",
"[	c #7B7B7B",
"}	c #A3A3A3",
"|	c #CBCBCB",
"1	c #F3F3F3",
"2	c #B2B2B2",
"3	c #1E1E1E",
"4	c #464646",
"5	c #6E6E6E",
"6	c #969696",
"7	c #BDBDBD",
"8	c #7C7C7C",
"9	c #0C0C0C",
"0	c #9F9F9F",
"a	c #777777",
"b	c #505050",
"c	c #282828",
"d	c #373737",
"e	c #D5D5D5",
"f	c #5F5F5F",
"g	c #AFAFAF",
"h	c #232323",
"i	c #696969",
"j	c #919191",
"k	c #B9B9B9",
"l	c #E1E1E1",
"m	c #888888",
"                                ",
"         ....                   ",
"         ...........            ",
"         ..+@#$%..........      ",
"        ...&****=-;>,')....     ",
"        ...!**********&....     ",
"        ...~**********{...      ",
"        ...]**********^...      ",
"        ../***********)...      ",
"        ..(**********_....      ",
"        ..:<[}|1*****2....      ",
"       .........345678....      ",
"       ..................       ",
"       ..................       ",
"       ...90abc..........       ",
"       ...d****e.........       ",
"       ...f****g.........       ",
"      ....hijklm.........       ",
"       ........)........        ",
"            ............        ",
"                  ......        ",
"                                ",
"                                ",
"                                ",
"       ...     ...     ...      ",
"      .....   .....   .....     ",
"      .....   .....   .....     ",
"      .....   .....   .....     ",
"       ...     ...     ...      ",
"                                ",
"                                ",
"                                "};
