/* XPM */
static char * select_region_left_xpm[] = {
"32 32 2 1",
" 	c None",
".	c #000000",
"                                ",
"                                ",
"                                ",
"  ............                  ",
"  ............                  ",
"  ............                  ",
"  ............                  ",
"  ............                  ",
"  ............                  ",
"  ............                  ",
"  ............                  ",
"  ............                  ",
"  ............                  ",
"  ............                  ",
"  ............                  ",
"  ............                  ",
"  ............                  ",
"  ............                  ",
"  ............                  ",
"  ............                  ",
"  ............                  ",
"  ............                  ",
"  ............                  ",
"  ............                  ",
"  ............                  ",
"  ............                  ",
"  ............................  ",
"  ............................  ",
"  ............................  ",
"  ............................  ",
"                                ",
"                                "};
