/* XPM */
static char * select_region_right_xpm[] = {
"32 32 47 1",
" 	c None",
".	c #FFFFFF",
"+	c #E8E8E8",
"@	c #747474",
"#	c #404040",
"$	c #585858",
"%	c #BCBCBC",
"&	c #E0E0E0",
"*	c #181818",
"=	c #000000",
"-	c #989898",
";	c #5C5C5C",
">	c #787878",
",	c #FCFCFC",
"'	c #101010",
")	c #707070",
"!	c #545454",
"~	c #F4F4F4",
"{	c #343434",
"]	c #888888",
"^	c #ECECEC",
"/	c #383838",
"(	c #F8F8F8",
"_	c #505050",
":	c #3C3C3C",
"<	c #0C0C0C",
"[	c #ACACAC",
"}	c #D8D8D8",
"|	c #F0F0F0",
"1	c #C0C0C0",
"2	c #242424",
"3	c #1C1C1C",
"4	c #C8C8C8",
"5	c #D0D0D0",
"6	c #646464",
"7	c #4C4C4C",
"8	c #282828",
"9	c #686868",
"0	c #C4C4C4",
"a	c #949494",
"b	c #2C2C2C",
"c	c #040404",
"d	c #303030",
"e	c #CCCCCC",
"f	c #444444",
"g	c #E4E4E4",
"h	c #9C9C9C",
"                                ",
"                        ===     ",
"                       ======   ",
"                      =======   ",
"                      =======   ",
"                      =======   ",
"                      ========  ",
"                      ========  ",
"                      ========  ",
"                       =======  ",
"                       =======  ",
"                       =======  ",
"     ===               =======  ",
"    =====      ====    =======  ",
"   =======    ======   =======  ",
"   =======   =======   =======  ",
"   =======   =======   =======  ",
"   =======   =======   =======  ",
"   =======   =======   =======  ",
"    =====     =====    =======  ",
"      =        ===     =======  ",
"                       =======  ",
"                       =======  ",
"                       =======  ",
"                       ======== ",
"                       ======== ",
"                       =======  ",
"                        ======  ",
"                         ====   ",
"                                ",
"                                ",
"                                "};
