/* XPM */
static char * split_swap_join_xpm[] = {
"32 32 2 1",
" 	c None",
".	c #000000",
"                                ",
"                                ",
"                                ",
"               ....             ",
"               ..........       ",
"               ..........       ",
"      ..       .........        ",
"      ....      .......         ",
"      .....     .......         ",
"      ......    ........        ",
"     ......     ...  ....       ",
"     .....      ..    ...       ",
"     .....            ....      ",
"     .....             ...      ",
"     ....              ...      ",
"     ....              ....     ",
"     ....              ....     ",
"      ...              ....     ",
"      ...             .....     ",
"      ....            .....     ",
"       ...    ..      .....     ",
"       ....  ...     ......     ",
"        ........    ......      ",
"         .......     .....      ",
"         .......      ....      ",
"        .........       ..      ",
"       ..........               ",
"       ..........               ",
"             ....               ",
"                                ",
"                                ",
"                                "};
