/* XPM */
static char * next_unselected_difference_xpm[] = {
"32 32 25 1",
" 	c None",
".	c #FFFFCE",
"+	c #000000",
"@	c #001624",
"#	c #2A6B8C",
"$	c #00568C",
"%	c #00416A",
"&	c #00111D",
"*	c #004E7F",
"=	c #006BAE",
"-	c #0079C5",
";	c #2A5467",
">	c #009DFF",
",	c #002D4A",
"'	c #001928",
")	c #00395D",
"!	c #000305",
"~	c #001E31",
"{	c #003353",
"]	c #003455",
"^	c #000A0F",
"/	c #EDCBED",
"(	c #001A2A",
"_	c #0068AA",
":	c #0082D4",
"................................",
"................................",
"................................",
"..............++++..............",
".............+@#$%+.............",
"............+&*=-=*&............",
"............+;$->-$+............",
"............+,*=-=*+............",
"            +')*$*)+            ",
"             !~,{,+             ",
"              +]*^              ",
"              +]*+              ",
"//////////////+]*+//////////////",
"//////////////+]*+//////////////",
"//////////////+]*+//////////////",
"//////////////+]*+//////////////",
"//////////////+]*+//////////////",
"//////////////+]*+//////////////",
"//////////////+]*+//////////////",
"//////////////+]*+//////////////",
"              +]*+              ",
"              +]*+              ",
"              +]*+              ",
"           ++++]*++++           ",
"...........+++(]*_:++...........",
"............++(]*_++............",
".............++]*++.............",
"..............++++..............",
"...............++...............",
"................................",
"................................",
"................................"};
