/* XPM */
static char * previous_difference_xpm[] = {
"32 32 25 1",
" 	c None",
".	c #FFFFCE",
"+	c #EDCBED",
"@	c #000000",
"#	c #003455",
"$	c #004E7F",
"%	c #001A2A",
"&	c #0068AA",
"*	c #0082D4",
"=	c #000A0F",
"-	c #000305",
";	c #001E31",
">	c #002D4A",
",	c #003353",
"'	c #001928",
")	c #00395D",
"!	c #00568C",
"~	c #006BAE",
"{	c #0079C5",
"]	c #2A5467",
"^	c #009DFF",
"/	c #00111D",
"(	c #001624",
"_	c #2A6B8C",
":	c #00416A",
"................................",
"................................",
"................................",
"................................",
"................................",
"................................",
"................................",
"................................",
"                                ",
"                                ",
"                                ",
"                                ",
"++++++++++++++++++++++++++++++++",
"+++++++++++++++@@+++++++++++++++",
"++++++++++++++@@@@++++++++++++++",
"+++++++++++++@@#$@@+++++++++++++",
"++++++++++++@@%#$&@@++++++++++++",
"+++++++++++@@@%#$&*@@+++++++++++",
"+++++++++++@@@@#$@@@@+++++++++++",
"++++++++++++++@#$@++++++++++++++",
"              @#$@              ",
"              @#$@              ",
"              @#$@              ",
"              @#$=              ",
".............-;>,>@.............",
"............@')$!$)@............",
"............@>$~{~$@............",
"............@]!{^{!@............",
"............@/$~{~$/............",
".............@(_!:@.............",
"..............@@@@..............",
"................................"};
