/* XPM */
static char * return_accept_xpm[] = {
"32 32 2 1",
" 	c None",
".	c #000000",
"                                ",
"                                ",
"                                ",
"              ....              ",
"             .....              ",
"             .....              ",
"            .......             ",
"            ... ...             ",
"            ..  ....            ",
"           ...  ....            ",
"           ..    ...            ",
"          ...    ....           ",
"          ...     ...           ",
"          ............          ",
"         .............          ",
"         ..        ...          ",
"         ..        ....         ",
"        ...         ...         ",
"        ..          ....        ",
"       ...          ....        ",
"                                ",
"                          .     ",
"             .......    ...     ",
"          ............  ...     ",
"        ....        ........    ",
"      ...            .......    ",
"    ...             ........    ",
"   ..             ..........    ",
"   .                   ......   ",
"                           ..   ",
"                                ",
"                                "};
