/* XPM */
static char * save_as_left_xpm[] = {
"32 32 18 1",
" 	c None",
".	c #0000FF",
"+	c #000000",
"@	c #319CFF",
"#	c #3366FF",
"$	c #000084",
"%	c #848484",
"&	c #FFFFFF",
"*	c #CCCCCC",
"=	c #AFFFAA",
"-	c #6A7993",
";	c #EDCBED",
">	c #FFFFCE",
",	c #C5C2C6",
"'	c #040404",
")	c #808304",
"!	c #BFC2BF",
"~	c #FF0000",
"       ...+++............+      ",
"       .@#+++############+      ",
"       $$$+++$$$$$$$$$$$$+      ",
"       %&&&+&&&*%=======*+      ",
"       %&&&+&&&*%=======*+      ",
"       %---+---*%;;;;;;;*+      ",
"       %---+---*%;;;;;;;*+      ",
"       %;;;+;;;*%-------*+      ",
"       %;;;+;;;*%-------*+      ",
"       %>>>+>>>*%>>>>>>>*+      ",
"       %>>>+>>>*%>>>>>>>*+      ",
"       %***+****%,*******+      ",
"       +++++++++++++++++++      ",
"           +                    ",
"         +++++                  ",
"          +++                   ",
"           +                    ",
"                                ",
"         ''''''''''''''         ",
"         ')'!!~!!!!!'!'         ",
"         ')'!!~!!!!!'''         ",
"         ')'!!~!!!!!')'         ",
"         ')'!!~!!!!!')'         ",
"         ')'!!~!!!!!')'         ",
"         ')'!!~~~~!!')'         ",
"         '))''''''''))'         ",
"         '))))))))))))'         ",
"         '))''''''''')'         ",
"         '))''''''!!')'         ",
"         '))''''''!!')'         ",
"         '))''''''!!')'         ",
"          '''''''''''''         "};
