/* XPM */
static char * save_as_xpm[] = {
"32 32 115 2",
"  	c None",
". 	c #040404",
"+ 	c #1C1C04",
"@ 	c #333504",
"# 	c #292A04",
"$ 	c #121204",
"% 	c #131413",
"& 	c #373837",
"* 	c #565756",
"= 	c #515251",
"- 	c #2D2E2D",
"; 	c #090909",
"> 	c #232323",
", 	c #464846",
"' 	c #414241",
") 	c #1E1E1E",
"! 	c #636504",
"~ 	c #4F5004",
"{ 	c #1F2004",
"] 	c #6A6C6A",
"^ 	c #A8AAA8",
"/ 	c #9DA09D",
"( 	c #0E0E0E",
"_ 	c #898B89",
": 	c #7F817F",
"< 	c #3A3C04",
"[ 	c #707304",
"} 	c #595B04",
"| 	c #232404",
"1 	c #272827",
"2 	c #797B79",
"3 	c #BFC2BF",
"4 	c #FF0000",
"5 	c #B3B6B3",
"6 	c #626362",
"7 	c #101010",
"8 	c #343534",
"9 	c #6C6E6C",
"0 	c #646664",
"a 	c #2C2D2C",
"b 	c #161616",
"c 	c #2A2B2A",
"d 	c #131313",
"e 	c #0D0D04",
"f 	c #171704",
"g 	c #151604",
"h 	c #0B0B04",
"i 	c #212204",
"j 	c #434404",
"k 	c #3E4004",
"l 	c #1C1D04",
"m 	c #323404",
"n 	c #696B04",
"o 	c #616304",
"p 	c #2B2C04",
"q 	c #5E6004",
"r 	c #2F3004",
"s 	c #2F3023",
"t 	c #70726A",
"u 	c #9EA19D",
"v 	c #5E5F56",
"w 	c #1D1D0E",
"x 	c #3C3E04",
"y 	c #6C6E04",
"z 	c #6F7204",
"A 	c #575904",
"B 	c #4C4E13",
"C 	c #515337",
"D 	c #555651",
"E 	c #50512D",
"F 	c #4B4C09",
"G 	c #767904",
"H 	c #808304",
"I 	c #0C0C04",
"J 	c #424404",
"K 	c #787B04",
"L 	c #737604",
"M 	c #545604",
"N 	c #3F4004",
"O 	c #5D5F04",
"P 	c #7C7F04",
"Q 	c #7D8004",
"R 	c #717404",
"S 	c #7F8204",
"T 	c #797C04",
"U 	c #686A04",
"V 	c #6F7104",
"W 	c #464704",
"X 	c #0F0F0F",
"Y 	c #1E1F1E",
"Z 	c #252525",
"` 	c #060606",
" .	c #292929",
"..	c #5C5D5C",
"+.	c #727372",
"@.	c #3E3F3E",
"#.	c #0B0B0B",
"$.	c #909290",
"%.	c #333404",
"&.	c #585A04",
"*.	c #505104",
"=.	c #272804",
"-.	c #303130",
";.	c #6D6F6D",
">.	c #878A87",
",.	c #4A4B4A",
"'.	c #0D0D0D",
").	c #4A4B04",
"!.	c #202004",
"~.	c #131304",
"{.	c #161716",
"].	c #3B3C3B",
"^.	c #212221",
"/.	c #080808",
"(.	c #101004",
". . . . . . . . . . . . . . . . . . . . . . . . . . . . . . .   ",
". + @ # $ % & * * * * * * * * * * * * * * * * = - ; > , ' ) .   ",
". @ ! ~ { > ] ^ ^ ^ ^ ^ ^ ^ ^ ^ ^ ^ ^ ^ ^ ^ ^ / * ( ' _ : & .   ",
". < [ } | 1 2 3 3 3 3 3 3 3 4 4 4 3 3 3 3 3 3 5 6 7 8 9 0 a .   ",
". < [ } | 1 2 3 3 3 3 3 3 4 4 3 4 4 3 3 3 3 3 5 6 7 b c 1 d .   ",
". < [ } | 1 2 3 3 3 3 3 4 4 3 3 3 4 4 3 3 3 3 5 6 7 e f g h .   ",
". < [ } | 1 2 3 3 3 3 3 4 3 3 3 3 3 4 3 3 3 3 5 6 7 i j k l .   ",
". < [ } | 1 2 3 3 3 3 3 3 3 3 3 4 4 3 3 3 3 3 5 6 7 m n o p .   ",
". < [ } | 1 2 3 3 3 3 3 3 3 3 4 4 3 3 3 3 3 3 5 6 7 m n o p .   ",
". < [ } | 1 2 3 3 3 3 3 3 3 3 4 3 3 3 3 3 3 3 5 6 7 m n o p .   ",
". < [ } | 1 2 3 3 3 3 3 3 3 3 4 3 3 3 3 3 3 3 5 6 7 m n o p .   ",
". < [ } | 1 2 3 3 3 3 3 3 3 3 3 3 3 3 3 3 3 3 5 6 7 m n o p .   ",
". < [ } | 1 2 3 3 3 3 3 3 3 3 4 3 3 3 3 3 3 3 5 6 7 m n o p .   ",
". < [ } | 1 2 3 3 3 3 3 3 3 4 4 4 3 3 3 3 3 3 5 6 7 m n o p .   ",
". < [ q r s t ^ ^ ^ ^ ^ ^ ^ ^ 4 ^ ^ ^ ^ ^ ^ ^ u v w x y o p .   ",
". < [ z A B C * * * * * * * * * * * * * * * * D E F q G o p .   ",
". < [ H H n m . . . . . . . . . . . . . . . . I J K H H o p .   ",
". < [ H H L M < < < < < < < < < < < < < < < < N O P H H o p .   ",
". < [ H H Q G [ [ [ [ [ [ [ [ [ [ [ [ [ [ [ [ R K S H H o p .   ",
". < [ H H T U } } } } } } } } } } } } } } } } } } } U T o p .   ",
". < [ H H V W | | | | | | | | | | | | | | | | | | | W V o p .   ",
". < [ H H n m . . . . . . . . . . . . X Y 1 1 Z b ` m n o p .   ",
". < [ H H n m . . . . . . . . . . . .  ...2 2 +.@.#.m n o p .   ",
". < [ H H n m . . . . . . . . . . . . @.$.3 3 5 6 7 m n o p .   ",
". < [ H H n m . . . . . . . . . . . . @.$.3 3 5 6 7 m n o p .   ",
". < [ H H n m . . . . . . . . . . . . @.$.3 3 5 6 7 m n o p .   ",
". < [ H H n m . . . . . . . . . . . . @.$.3 3 5 6 7 m n o p .   ",
". < [ H H n m . . . . . . . . . . . . @.$.3 3 5 6 7 m n o p .   ",
". %.&.o o *.=.. . . . . . . . . . . . -.;.$.$.>.,.'.=.*.).i .   ",
"  !.# p p | ~.. . . . . . . . . . . . {.-.@.@.].^./.~.| i (..   ",
"    . . . . . . . . . . . . . . . . . . . . . . . . . . . . .   ",
"                                                                "};
