/* XPM */
static char * select_region_right_xpm[] = {
"32 32 3 1",
" 	c None",
".	c #6A7993",
"+	c #EDCBED",
"                                ",
"                                ",
"                                ",
"                                ",
"                                ",
"                                ",
"                                ",
"                                ",
"                                ",
"                                ",
"                                ",
"                                ",
"...............  +++++++++++++++",
"...............  +++++++++++++++",
"...............  +++++++++++++++",
"...............  +++++++++++++++",
"...............  +++++++++++++++",
"...............  +++++++++++++++",
"...............  +++++++++++++++",
"...............  +++++++++++++++",
"                                ",
"                                ",
"                                ",
"                                ",
"                                ",
"                                ",
"                                ",
"                                ",
"                                ",
"                                ",
"                                ",
"                                "};
