/* XPM */
static char * select_region_middle_xpm[] = {
"32 32 2 1",
" 	c None",
".	c #000000",
"                                ",
"                                ",
"                                ",
"          ............          ",
"          ............          ",
"          ............          ",
"          ............          ",
"          ............          ",
"          ............          ",
"          ............          ",
"          ............          ",
"          ............          ",
"          ............          ",
"          ............          ",
"          ............          ",
"          ............          ",
"          ............          ",
"          ............          ",
"          ............          ",
"          ............          ",
"          ............          ",
"          ............          ",
"          ............          ",
"          ............          ",
"          ............          ",
"          ............          ",
" .............................. ",
" .............................. ",
" .............................. ",
" .............................. ",
"                                ",
"                                "};
