/* XPM */
static char * select_region_left_xpm[] = {
"32 32 3 1",
" 	c None",
".	c #EDCBED",
"+	c #6A7993",
"                                ",
"                                ",
"                                ",
"                                ",
"                                ",
"                                ",
"                                ",
"                                ",
"                                ",
"                                ",
"                                ",
"                                ",
"...............  +++++++++++++++",
"...............  +++++++++++++++",
"...............  +++++++++++++++",
"...............  +++++++++++++++",
"...............  +++++++++++++++",
"...............  +++++++++++++++",
"...............  +++++++++++++++",
"...............  +++++++++++++++",
"                                ",
"                                ",
"                                ",
"                                ",
"                                ",
"                                ",
"                                ",
"                                ",
"                                ",
"                                ",
"                                ",
"                                "};
