/* XPM */
static char * select_region_neither_xpm[] = {
"32 32 2 1",
" 	c None",
".	c #6A7993",
"                                ",
"                                ",
"                                ",
"                                ",
"                                ",
"                                ",
"                                ",
"                                ",
"                                ",
"                                ",
"                                ",
"                                ",
"...............  ...............",
"...............  ...............",
"...............  ...............",
"...............  ...............",
"...............  ...............",
"...............  ...............",
"...............  ...............",
"...............  ...............",
"                                ",
"                                ",
"                                ",
"                                ",
"                                ",
"                                ",
"                                ",
"                                ",
"                                ",
"                                ",
"                                ",
"                                "};
