/* XPM */
static char * split_swap_join_xpm[] = {
"32 32 4 1",
" 	c None",
".	c #AFFFAA",
"+	c #000000",
"@	c #FFFFCE",
"               ........         ",
"          +    ........         ",
"          ++   ........         ",
"    +++++++++  ........         ",
"   ++     ++            ........",
"   +      +             ........",
"   +                    ........",
"   +                    ........",
"   +                            ",
"   +                            ",
"   +                   +        ",
"                       +        ",
"                       +        ",
"@@@@@@@@ @@@@@@@@      +        ",
"@@@@@@@@ @@@@@@@@      +        ",
"@@@@@@@@ @@@@@@@@      +        ",
"@@@@@@@@ @@@@@@@@      +        ",
"                       +        ",
"                       +        ",
"   +                 +++++      ",
"  +++                 +++       ",
" +++++                 +        ",
"   +                            ",
"   +                            ",
"   +                    ........",
"   +                    ........",
"   +                    ........",
"   ++                   ........",
"    +++++++++  ........         ",
"               ........         ",
"               ........         ",
"               ........         "};
